:FULLY-SPECIFIED
:FORCE-ALL-JOINTS-BE-3DOF
:DEGREES
408
root 4.57139 16.213 -11.1822 1.42851 -38.8006 -1.31368
lfemur -28.5867 7.24116 -10.1074
ltibia 45.6849 0 0
lfoot -12.1841 14.2984 0
ltoes 1.89751 0 0
rfemur -42.2263 -25.4396 26.3439
rtibia 86.4969 0 0
rfoot 4.38527 -2.61945 0
rtoes 37.2644 0 0
lowerback 5.75763 4.74924 -0.783946
upperback 1.74726 6.21047 -2.25365
thorax -1.24468 3.09546 -2.28944
lowerneck -6.2028 2.49275 7.43735
upperneck 3.70434 2.68614 0.0789361
head 2.37462 1.4495 -1.1558
lclavicle -4.59533e-14 6.60406e-15 0
lhumerus -45.5465 -17.7262 94.1891
lradius 51.3027 0 0
lwrist 19.2545 0 0
lhand -19.4702 2.52562 0
lfingers 7.12502 0 0
lthumb 6.85107 32.3902 0
rclavicle -4.59533e-14 6.60406e-15 0
rhumerus -45.3879 10.1648 -91.5268
rradius 64.4413 0 0
rwrist 7.77828 0 0
rhand -19.3255 -17.339 0
rfingers 7.12502 0 0
rthumb 6.99094 -767.203 0
409
root 4.52786 16.1866 -11.0747 0.98123 -39.4125 -0.916238
lfemur -28.184 7.88324 -10.417
ltibia 46.4949 0 0
lfoot -12.9905 14.1439 0
ltoes 2.22126 0 0
rfemur -44.1633 -26.0582 26.2841
rtibia 87.7265 0 0
rfoot 4.16905 -1.98801 0
rtoes 36.926 0 0
lowerback 5.98378 4.79561 -0.967328
upperback 1.78493 6.25562 -2.36256
thorax -1.33699 3.11669 -2.32136
lowerneck -6.17674 2.69878 7.56694
upperneck 3.67865 2.96778 -0.198613
head 2.37852 1.58297 -1.25687
lclavicle -3.83654e-14 3.97569e-15 0
lhumerus -45.6312 -17.568 94.2249
lradius 51.211 0 0
lwrist 19.1887 0 0
lhand -20.0795 2.1807 0
lfingers 7.12502 0 0
lthumb 6.26306 32.0681 0
rclavicle -3.83654e-14 3.97569e-15 0
rhumerus -45.4494 10.0386 -91.329
rradius 65.0109 0 0
rwrist 7.73149 0 0
rhand -19.6001 -17.1966 0
rfingers 7.12502 0 0
rthumb 6.72587 -767.07 0
410
root 4.46912 16.1661 -10.9854 0.957225 -39.387 -0.981115
lfemur -28.0149 8.26244 -10.295
ltibia 47.1368 0 0
lfoot -13.6886 13.7215 0
ltoes 2.20326 0 0
rfemur -45.0385 -25.3876 25.8071
rtibia 86.3162 0 0
rfoot 3.83406 -1.59403 0
rtoes 35.7655 0 0
lowerback 6.07125 4.7063 -0.821998
upperback 1.8053 6.1448 -2.347
thorax -1.35571 3.06138 -2.38432
lowerneck -6.2025 2.89664 7.72569
upperneck 3.75298 3.23002 -0.468162
head 2.4347 1.70996 -1.36173
lclavicle -3.73798e-14 1.03589e-14 0
lhumerus -45.4949 -17.5467 94.2353
lradius 50.8734 0 0
lwrist 18.7056 0 0
lhand -20.3518 1.86937 0
lfingers 7.12502 0 0
lthumb 6.0001 31.7635 0
rclavicle -3.73798e-14 1.03589e-14 0
rhumerus -45.393 9.78105 -91.103
rradius 65.304 0 0
rwrist 8.03653 0 0
rhand -20.2673 -17.1243 0
rfingers 7.12502 0 0
rthumb 6.08159 -767.012 0
411
root 4.40623 16.1442 -10.8898 0.931525 -39.3598 -1.05057
lfemur -27.8338 8.66842 -10.1643
ltibia 47.824 0 0
lfoot -14.436 13.2693 0
ltoes 2.184 0 0
rfemur -45.9756 -24.6696 25.2965
rtibia 84.8063 0 0
rfoot 3.47541 -1.17225 0
rtoes 34.5231 0 0
lowerback 6.16488 4.61068 -0.666409
upperback 1.8271 6.02616 -2.33034
thorax -1.37576 3.00217 -2.45171
lowerneck -6.23007 3.10847 7.89564
upperneck 3.83255 3.51077 -0.756737
head 2.49484 1.84591 -1.474
lclavicle -3.63245e-14 1.71927e-14 0
lhumerus -45.3491 -17.5239 94.2464
lradius 50.5119 0 0
lwrist 18.1884 0 0
lhand -20.6434 1.53607 0
lfingers 7.12502 0 0
lthumb 5.71858 31.4374 0
rclavicle -3.63245e-14 1.71927e-14 0
rhumerus -45.3326 9.50533 -90.861
rradius 65.6179 0 0
rwrist 8.3631 0 0
rhand -20.9817 -17.0469 0
rfingers 7.12502 0 0
rthumb 5.39184 -766.95 0
412
root 4.34127 16.1216 -10.791 0.904979 -39.3316 -1.12232
lfemur -27.6468 9.08777 -10.0294
ltibia 48.5339 0 0
lfoot -15.208 12.8023 0
ltoes 2.1641 0 0
rfemur -46.9435 -23.9279 24.7691
rtibia 83.2467 0 0
rfoot 3.10495 -0.736556 0
rtoes 33.2397 0 0
lowerback 6.26161 4.5119 -0.50569
upperback 1.84963 5.9036 -2.31313
thorax -1.39646 2.94101 -2.52134
lowerneck -6.25855 3.32728 8.07119
upperneck 3.91474 3.80077 -1.05483
head 2.55697 1.98634 -1.58996
lclavicle -3.52345e-14 2.42517e-14 0
lhumerus -45.1984 -17.5003 94.2579
lradius 50.1386 0 0
lwrist 17.6541 0 0
lhand -20.9446 1.19178 0
lfingers 7.12502 0 0
lthumb 5.42778 31.1006 0
rclavicle -3.52345e-14 2.42517e-14 0
rhumerus -45.2701 9.22052 -90.6111
rradius 65.942 0 0
rwrist 8.70044 0 0
rhand -21.7195 -16.9669 0
rfingers 7.12502 0 0
rthumb 4.67935 -766.885 0
413
root 4.27631 16.099 -10.6922 0.878432 -39.3035 -1.19407
lfemur -27.4597 9.50712 -9.89445
ltibia 49.2437 0 0
lfoot -15.98 12.3352 0
ltoes 2.14419 0 0
rfemur -47.9114 -23.1862 24.2416
rtibia 81.687 0 0
rfoot 2.73449 -0.300865 0
rtoes 31.9563 0 0
lowerback 6.35834 4.41313 -0.344972
upperback 1.87216 5.78105 -2.29591
thorax -1.41717 2.87984 -2.59096
lowerneck -6.28703 3.5461 8.24674
upperneck 3.99694 4.09078 -1.35292
head 2.6191 2.12677 -1.70593
lclavicle -3.41446e-14 3.13108e-14 0
lhumerus -45.0477 -17.4767 94.2695
lradius 49.7652 0 0
lwrist 17.1198 0 0
lhand -21.2458 0.847485 0
lfingers 7.12502 0 0
lthumb 5.13698 30.7638 0
rclavicle -3.41446e-14 3.13108e-14 0
rhumerus -45.2077 8.9357 -90.3612
rradius 66.2662 0 0
rwrist 9.03778 0 0
rhand -22.4574 -16.8869 0
rfingers 7.12502 0 0
rthumb 3.96685 -766.821 0
